<?xml version="1.0" standalone="no"?>
<!DOCTYPE svg PUBLIC "-//W3C//DTD SVG 20010904//EN"
 "http://www.w3.org/TR/2001/REC-SVG-20010904/DTD/svg10.dtd">
<svg version="1.0" xmlns="http://www.w3.org/2000/svg"
 width="154.507" height="39.552" viewBox="0 0 211.000000 190.000000"
 preserveAspectRatio="xMidYMid meet">

<g transform="translate(0.000000,190.000000) scale(0.100000,-0.100000)"
fill="#FFFFFF" stroke="none">
<path d="M1330 1733 c-49 -25 -80 -76 -80 -130 0 -57 21 -96 65 -123 123 -76
270 56 209 186 -34 71 -125 103 -194 67z m93 -62 c13 -5 29 -22 36 -38 31 -75
-57 -137 -116 -81 -37 35 -26 99 20 118 29 12 32 12 60 1z"/>
<path d="M1030 1563 c-57 -11 -189 -83 -253 -137 -86 -73 -127 -142 -127 -212
0 -96 23 -109 280 -159 74 -15 143 -31 153 -36 38 -21 19 -55 -103 -196 -118
-134 -139 -173 -105 -187 27 -10 42 3 157 136 152 175 168 206 131 268 -25 43
-62 57 -252 95 -96 19 -178 40 -183 47 -64 102 257 354 392 306 43 -14 60 -58
60 -150 0 -40 6 -84 13 -97 18 -37 66 -60 158 -76 88 -16 109 -11 109 26 0 23
-22 33 -118 49 -87 14 -92 21 -92 122 0 84 -25 148 -72 181 -27 20 -100 30
-148 20z"/>
<path d="M1312 1098 c-18 -18 -15 -42 15 -102 l26 -54 -184 -211 -184 -211
-207 0 c-115 0 -208 2 -208 5 0 2 53 64 118 138 145 165 205 235 215 254 10
17 -9 43 -32 43 -20 0 -431 -457 -431 -479 0 -4 8 -15 18 -24 16 -15 51 -17
278 -17 214 0 263 3 281 15 12 8 59 59 104 112 46 54 102 118 125 143 23 25
61 68 85 97 24 28 48 50 53 49 5 -1 47 -87 93 -191 47 -105 92 -198 102 -208
19 -19 46 -15 55 10 5 12 -173 422 -251 578 -33 64 -48 76 -71 53z"/>
<path d="M415 841 c-101 -18 -215 -102 -260 -191 -37 -73 -50 -158 -35 -232
15 -80 41 -129 97 -189 142 -152 385 -151 528 2 45 48 51 62 39 93 -11 28 -35
17 -88 -37 -63 -66 -111 -89 -197 -95 -95 -7 -159 17 -225 82 -66 67 -88 129
-82 231 10 158 129 265 294 265 54 0 65 3 75 21 8 17 8 24 -3 35 -17 17 -90
25 -143 15z"/>
<path d="M1615 819 c-9 -28 7 -42 76 -62 66 -20 129 -71 167 -135 24 -42 27
-56 27 -142 0 -85 -3 -100 -27 -140 -33 -56 -70 -92 -128 -122 -61 -31 -195
-33 -255 -3 -142 70 -205 254 -135 396 24 49 22 75 -6 86 -12 4 -25 -3 -41
-23 -63 -78 -71 -251 -15 -360 111 -219 393 -265 575 -95 156 145 151 384 -10
531 -84 77 -213 116 -228 69z"/>
</g>
</svg>
