<svg xmlns="http://www.w3.org/2000/svg" width="154.507" height="39.552" viewBox="0 0 154.507 39.552"><g transform="translate(-194.202 -122.688)"><path d="M196.642,135.512q3.592-1.129,5.931,6.314l-1.9.6q-1.894-5.243-3.394-4.771-1.547.487-.536,3.707a11.64,11.64,0,0,0,3.218,5.1q2.064,1.77,4.107,3.526a14,14,0,0,1,3.443,5.818,9.2,9.2,0,0,1,.416,4.686,3.444,3.444,0,0,1-2.4,2.78q-3.878,1.22-6.042-5.668l-.427-1.36,2.266-.712.613,1.949q1.31,4.169,3,3.638.862-.272,1-1.554a6.817,6.817,0,0,0-.369-2.734,13.413,13.413,0,0,0-3.435-5.684q-2.064-1.71-4.117-3.444a10.443,10.443,0,0,1-3.131-4.717Q192.908,136.686,196.642,135.512Z" transform="translate(0 -1.225)" fill="#fff"/><path d="M220.827,158.695l-2.256.565-6.422-25.633-2.759.691-.56-2.238,7.74-1.939.561,2.238-2.726.683Z" transform="translate(-1.414 -0.72)" fill="#fff"/><path d="M238.9,155.05l-2.309.392-1.806-9.709q-.722-3.879-3.074-3.443l-1.069.2,2.528,13.589-2.3.465-2.535-13.626-1.036.193-.429-2.305,1.036-.193-2.3-12.353,3.882-.722q4.145-.771,5.123,4.484l.751,4.038a4.612,4.612,0,0,1-.1,2.461,6.461,6.461,0,0,1-1.441,2.042A2.748,2.748,0,0,1,235.9,141.8a9.928,9.928,0,0,1,1.189,3.556Zm-9.316-25.3-1.266.235,1.9,10.2,1.1-.2q2.32-.432,1.72-3.651l-.643-3.461Q231.735,129.351,229.581,129.752Z" transform="translate(-3.036 -0.459)" fill="#fff"/><path d="M247.9,124.5q4.053-.478,4.8,5.855l1.93,16.391q.733,6.221-3.321,6.7t-4.8-5.818l-1.922-16.316Q243.847,124.979,247.9,124.5Zm.25,2.123a1.487,1.487,0,0,0-1.32,1.383,11.756,11.756,0,0,0,.088,3.031l1.931,16.39a11.33,11.33,0,0,0,.619,2.967,1.442,1.442,0,0,0,1.592.927q1.728-.2,1.249-4.264l-1.936-16.428a11.712,11.712,0,0,0-.619-2.967A1.487,1.487,0,0,0,248.151,126.623Z" transform="translate(-4.859 -0.172)" fill="#fff"/><path d="M265.683,122.944q1.8-.072,3.3,2.065c.013.037.045.036.1,0q1.3-2.248,2.972-2.314a2.843,2.843,0,0,1,2.333.977,4.212,4.212,0,0,1,1,2.738l1,25.094-2.323.091-.98-24.68q-.073-1.874-1.06-1.835-1.89.075-1.75,3.6l.914,23.032-2.323.092-.914-23.032q-.14-3.523-1.962-3.451-1.087.042-1.012,1.917l.979,24.681-2.341.092-1-25.092a4.176,4.176,0,0,1,.784-2.809A2.9,2.9,0,0,1,265.683,122.944Z" transform="translate(-6.611 0)" fill="#fff"/><path d="M285.518,154.358l.091-3.412,2.459.066-.092,3.412Z" transform="translate(-8.826 -2.731)" fill="#fff"/><path d="M305.457,153.087a2.778,2.778,0,0,1-1.6-.64,7.265,7.265,0,0,1-1.345-1.783q-1.717,1.986-3.431,1.826a2.878,2.878,0,0,1-2.2-1.26,4.132,4.132,0,0,1-.625-2.827l2.341-25,2.331.219-2.3,24.555q-.179,1.905.837,2,1.882.176,2.21-3.335l2.148-22.949,2.315.217-2.148,22.949q-.329,3.511,1.47,3.679,1.066.1,1.245-1.8l2.3-24.555,2.316.216-2.341,25a4.127,4.127,0,0,1-1.14,2.662A2.859,2.859,0,0,1,305.457,153.087Z" transform="translate(-9.861 -0.069)" fill="#fff"/><path d="M324.273,153.327l-.355,2.128q-1.659-.125-2.22-.219a3.913,3.913,0,0,1-3.22-2.153,8.033,8.033,0,0,1-.226-4.544l1.25-7.492-1.039-.174.36-2.164,1.041.174,1.095-6.568a8.618,8.618,0,0,1,1.818-4.6,3.747,3.747,0,0,1,3.467-.853c.813.136,1.487.274,2.016.414l-.354,2.127a14.7,14.7,0,0,0-1.631-.387q-1.618-.27-2.207.621a10.149,10.149,0,0,0-.79,3.005l-1.106,6.622,3.647.609-.36,2.163-3.647-.608-1.259,7.547a6.1,6.1,0,0,0-.012,2.717,2.422,2.422,0,0,0,2.1,1.511A10,10,0,0,0,324.273,153.327Z" transform="translate(-11.971 -0.395)" fill="#fff"/><path d="M338.8,158.809l-2.274-.562,2.217-9.623q.886-3.845-1.445-4.384l-1.06-.243-3.1,13.469-2.291-.489,3.111-13.506-1.028-.237.527-2.285,1.027.237,2.82-12.246,3.848.886q4.107.947,2.908,6.155l-.922,4a4.623,4.623,0,0,1-1.076,2.216,6.486,6.486,0,0,1-2.136,1.3,2.747,2.747,0,0,1,1.418,1.963,9.94,9.94,0,0,1-.328,3.735Zm1.547-26.915-1.255-.288-2.329,10.107,1.092.251q2.3.531,3.034-2.662l.79-3.43Q342.484,132.386,340.347,131.894Z" transform="translate(-13.207 -0.604)" fill="#fff"/><path d="M353.547,146.294l1.042.313,6.65-11.36,2.211.663-6.827,11.542q2.2,1.52,1.069,5.293l-3.154,10.528-2.233-.708,3.111-10.384q.8-2.678-1.33-3.315l-1.2-.36-3.923,13.1-2.233-.708,3.912-13.061-1.01-.3.662-2.21,1.01.3,3.669-12.253,2.244.672Z" transform="translate(-14.743 -1.033)" fill="#fff"/></g></svg>