<?xml version="1.0" standalone="no"?>
<!DOCTYPE svg PUBLIC "-//W3C//DTD SVG 1.1//EN" "http://www.w3.org/Graphics/SVG/1.1/DTD/svg11.dtd" >
<svg xmlns="http://www.w3.org/2000/svg" xmlns:xlink="http://www.w3.org/1999/xlink" version="1.1">
<metadata></metadata>
<defs>
<font id="fivo_sansregular" horiz-adv-x="1179" >
<font-face units-per-em="2048" ascent="1638" descent="-410" />
<missing-glyph horiz-adv-x="614" />
<glyph horiz-adv-x="0" />
<glyph horiz-adv-x="682" />
<glyph horiz-adv-x="1581" d="M164 0v1434h1253v-1434h-1253zM451 256h677v922h-677v-922z" />
<glyph horiz-adv-x="1581" d="M164 0v1434h1253v-1434h-1253zM451 256h677v922h-677v-922z" />
<glyph unicode="&#xd;" horiz-adv-x="512" />
<glyph unicode=" "  horiz-adv-x="614" />
<glyph unicode="&#x09;" horiz-adv-x="614" />
<glyph unicode="&#xa0;" horiz-adv-x="614" />
<glyph unicode="!" horiz-adv-x="598" d="M123 147q0 89 42 129.5t134 40.5t134 -40.5t42 -129.5q0 -88 -42 -127.5t-134 -39.5t-134 39.5t-42 127.5zM139 1044v390h320v-390l-66 -520h-188z" />
<glyph unicode="&#x22;" horiz-adv-x="796" d="M61 1147v287h273v-287l-35 -442h-205zM463 1147v287h272v-287l-33 -442h-204z" />
<glyph unicode="#" horiz-adv-x="1495" d="M82 373v205h311l33 225h-283v205h312l61 426h221l-61 -426h225l62 426h221l-62 -426h291v-205h-319l-33 -225h291v-205h-320l-53 -373h-221l53 373h-225l-54 -373h-221l54 373h-283zM614 578h226l32 225h-225z" />
<glyph unicode="$" horiz-adv-x="1343" d="M82 410h303q0 -122 67.5 -176t219.5 -54q142 0 206 45t64 144q0 66 -46.5 111.5t-120.5 71.5t-163.5 47.5t-179 50.5t-163.5 70.5t-120.5 116.5t-46.5 179q0 216 107.5 324t343.5 128v170h238v-170q236 -20 343 -126t107 -318h-303q0 120 -63 173.5t-203 53.5 q-132 0 -191 -44t-59 -144q0 -44 28.5 -76t77.5 -53t112 -38t132.5 -35t139 -39t132.5 -55t112 -79t77.5 -114.5t28.5 -157.5q0 -217 -112 -325.5t-359 -127.5v-168h-238v170q-247 19 -359 125.5t-112 319.5z" />
<glyph unicode="%" horiz-adv-x="1818" d="M61 1049q0 213 84.5 309t272.5 96t272 -95.5t84 -309.5t-84.5 -310t-271.5 -96q-188 0 -272.5 96t-84.5 310zM283 1049q0 -123 32 -178.5t103 -55.5t103 55.5t32 178.5t-32 178t-103 55t-103 -55t-32 -178zM322 -61l901 1556h274l-901 -1556h-274zM1044 393 q0 214 84.5 310t272.5 96q187 0 271.5 -96t84.5 -310t-84 -309.5t-272 -95.5t-272.5 96t-84.5 309zM1268 393q0 -123 31.5 -178t101.5 -55q72 0 103.5 55t31.5 178t-31.5 178.5t-101.5 55.5q-72 0 -103.5 -55.5t-31.5 -178.5z" />
<glyph unicode="&#x26;" horiz-adv-x="1626" d="M82 362q0 77 26 143.5t75 120t103 94t126 81.5q-146 168 -146 299q0 203 116 289t331 86q221 0 323.5 -79t102.5 -243q0 -52 -19 -100t-47.5 -84t-75 -73.5t-88 -63t-100.5 -58.5l291 -285q39 96 55 228h238q-24 -237 -113 -404l326 -313h-392l-106 104 q-186 -145 -498 -145q-270 0 -399 99.5t-129 303.5zM401 397q2 -101 64.5 -159t177.5 -58q78 0 156 24.5t139 69.5l-369 365q-82 -55 -125.5 -113t-42.5 -129zM537 1135q0 -85 118 -209q115 59 172.5 108t57.5 115q0 70 -41 103.5t-131 33.5q-92 0 -134 -36t-42 -115z" />
<glyph unicode="'" horiz-adv-x="395" d="M61 1147v287h273v-287l-35 -442h-205z" />
<glyph unicode="(" horiz-adv-x="606" d="M82 532q0 75 6 147.5t15 132.5t24.5 121.5t29.5 107t34.5 96.5t34.5 82.5t36 72t32.5 58t29.5 48.5t22 36h240l-9 -15q-32 -52 -53 -90t-60.5 -129t-64 -178.5t-44 -219t-19.5 -270.5q0 -524 250 -942h-240l-34.5 58.5t-43.5 82t-52 112.5t-48.5 134t-45 163t-28.5 183 t-12 209z" />
<glyph unicode=")" horiz-adv-x="606" d="M20 -410q250 418 250 942q0 139 -19.5 270.5t-44 218.5t-64 178.5t-60.5 129t-53 90.5l-9 15h240q3 -5 22 -36t29.5 -48.5t32.5 -58t36 -72t34.5 -82.5t34.5 -96.5t29.5 -107t24.5 -121.5t15 -132.5t6 -147.5q0 -105 -12 -209t-28.5 -183t-45 -163t-48.5 -134t-52 -112.5 t-43.5 -82l-34.5 -58.5h-240z" />
<glyph unicode="*" horiz-adv-x="724" d="M61 1032l107 62l80 26l8 4l-10 6l-78 27l-107 62l70 120l107 -61l61 -55l10 -6v12l-16 82v123h139v-123l-16 -82v-10l8 4l63 55l107 61l70 -120l-107 -62l-78 -27l-10 -6l8 -4l80 -26l107 -62l-70 -121l-107 62l-63 55l-8 4v-8l16 -82v-123h-139v123l16 82v8l-8 -4 l-63 -55l-107 -62z" />
<glyph unicode="+" horiz-adv-x="1187" d="M61 414v221h414v389h238v-389h413v-221h-413v-414h-238v414h-414z" />
<glyph unicode="," horiz-adv-x="475" d="M61 145q0 86 36.5 129t123.5 43q50 0 86.5 -16t56.5 -40t32 -62.5t15 -73t3 -80.5q0 -209 -79 -303t-253 -94v137q75 0 109 47t32 148q-85 0 -123.5 39t-38.5 126z" />
<glyph unicode="-" horiz-adv-x="798" d="M61 434v221h676v-221h-676z" />
<glyph unicode="." horiz-adv-x="475" d="M61 147q0 89 42.5 129.5t134.5 40.5t134 -40.5t42 -129.5q0 -88 -42 -127.5t-134 -39.5t-134.5 39.5t-42.5 127.5z" />
<glyph unicode="/" horiz-adv-x="804" d="M20 0l492 1434h272l-491 -1434h-273z" />
<glyph unicode="0" horiz-adv-x="1458" d="M82 717q0 399 153.5 578.5t493.5 179.5t493.5 -180t153.5 -578t-153.5 -578t-493.5 -180t-493.5 180t-153.5 578zM401 717q0 -282 78 -409.5t250 -127.5t250 127.5t78 409.5t-78 409t-250 127t-250 -127t-78 -409z" />
<glyph unicode="1" horiz-adv-x="774" d="M61 1212v222h549v-1434h-303v1212h-246z" />
<glyph unicode="2" horiz-adv-x="1183" d="M61 0v184q90 81 203.5 174.5t185.5 151.5t148.5 128.5t119.5 124t71 118t28 131.5q0 128 -50.5 184.5t-164.5 56.5t-165.5 -68.5t-51.5 -221.5h-303q0 269 123.5 390.5t396.5 121.5q274 0 397 -110t123 -353q0 -54 -13 -106t-32.5 -95.5t-58.5 -94t-73 -88t-94.5 -93.5 t-105.5 -94.5t-124 -105.5t-132 -114h613v-221h-1041z" />
<glyph unicode="3" horiz-adv-x="1298" d="M61 471h287q0 -154 68.5 -222.5t222.5 -68.5q144 0 208 56.5t64 181.5q0 116 -69.5 168.5t-223.5 52.5h-90v205h90q140 0 203.5 46.5t63.5 149.5q0 112 -58.5 162.5t-187.5 50.5t-187.5 -64t-58.5 -206h-270q0 258 122.5 375t393.5 117q270 0 393 -99.5t123 -318.5 q0 -59 -13 -107.5t-33.5 -78.5t-45.5 -53t-49.5 -33.5t-45 -17.5t-33.5 -8l-13 -1q6 -1 16.5 -2.5t41.5 -10.5t58.5 -22t61.5 -40t58.5 -60.5t41.5 -87t17 -117.5q0 -241 -137.5 -350t-440.5 -109q-304 0 -441 121.5t-137 390.5z" />
<glyph unicode="4" horiz-adv-x="1351" d="M61 352v258l684 824h340v-861h144v-221h-144v-352h-303v352h-721zM328 573h454v553z" />
<glyph unicode="5" horiz-adv-x="1236" d="M61 410h271q17 -122 80.5 -176t189.5 -54q141 0 205.5 69t64.5 222t-63 222t-203 69q-112 0 -169 -37.5t-77 -122.5h-254l140 832h827v-222h-606v-2l-49 -278q96 51 254 51q264 0 384 -122t120 -390q0 -269 -140 -390.5t-450 -121.5q-258 0 -383 107.5t-142 343.5z" />
<glyph unicode="6" horiz-adv-x="1298" d="M82 696q0 409 136.5 594t440.5 185q228 0 351 -97.5t166 -312.5h-287q-26 109 -80.5 157t-149.5 48q-146 0 -210 -107.5t-64 -351.5l2.5 10t11.5 24t24.5 34t43 36t65 34t93 24t123.5 10q237 0 353 -123.5t116 -388.5q0 -268 -133 -390t-425 -122q-311 0 -444 174 t-133 563zM406 471q0 -153 60 -222t193 -69t192.5 68.5t59.5 222.5q0 153 -59.5 222t-192.5 69q-132 0 -192.5 -69.5t-60.5 -221.5z" />
<glyph unicode="7" horiz-adv-x="1130" d="M61 1212v222h1008v-185l-614 -1249h-322l612 1212h-684z" />
<glyph unicode="8" horiz-adv-x="1359" d="M82 401q0 267 223 355q-162 86 -162 301q0 220 127 319t410 99q282 0 409.5 -99t127.5 -319q0 -215 -162 -301q223 -88 223 -355q0 -232 -142 -337t-456 -105q-315 0 -456.5 105t-141.5 337zM387 410q0 -119 70.5 -174.5t224.5 -55.5t223.5 55.5t69.5 174.5 q0 123 -68.5 176t-224.5 53t-225.5 -53.5t-69.5 -175.5zM430 1049q0 -110 58.5 -157.5t191.5 -47.5t191.5 47.5t58.5 157.5q0 106 -59.5 155t-190.5 49t-190.5 -49t-59.5 -155z" />
<glyph unicode="9" horiz-adv-x="1298" d="M82 963q0 269 132 390.5t425 121.5q311 0 444.5 -174.5t133.5 -563.5q0 -408 -137.5 -593t-440.5 -185q-229 0 -351 97.5t-165 312.5h287q26 -109 80 -157t149 -48q146 0 210 107.5t64 351.5l-2.5 -10t-11.5 -24t-24.5 -34t-43 -36t-64.5 -34t-92.5 -24t-123.5 -10 q-237 0 -353 123.5t-116 388.5zM385 963q0 -152 60.5 -221.5t193.5 -69.5q132 0 192 69.5t60 221.5t-60 221t-192 69q-134 0 -194 -68.5t-60 -221.5z" />
<glyph unicode=":" horiz-adv-x="477" d="M61 147q0 89 42.5 129.5t134.5 40.5q94 0 136 -40.5t42 -129.5q0 -87 -42.5 -127t-135.5 -40q-92 0 -134.5 39.5t-42.5 127.5zM61 860q0 88 42.5 128t134.5 40q94 0 136 -40t42 -128t-43 -128t-135 -40q-93 0 -135 39.5t-42 128.5z" />
<glyph unicode=";" horiz-adv-x="477" d="M61 145q0 86 36.5 129t123.5 43q59 0 99.5 -22.5t59.5 -64t26.5 -85t7.5 -100.5q0 -209 -78.5 -303t-253.5 -94v137q75 0 109 46.5t34 148.5q-85 0 -124 39t-40 126zM61 860q0 88 42.5 128t134.5 40q94 0 136 -40t42 -128t-43 -128t-135 -40q-93 0 -135 39.5t-42 128.5z " />
<glyph unicode="&#x3c;" horiz-adv-x="942" d="M61 358v308l820 358v-272l-547 -240l547 -240v-272z" />
<glyph unicode="=" horiz-adv-x="1318" d="M61 233v222h1196v-222h-1196zM61 631v221h1196v-221h-1196z" />
<glyph unicode="&#x3e;" horiz-adv-x="942" d="M61 0v272l547 240l-547 240v272l820 -358v-308z" />
<glyph unicode="?" horiz-adv-x="1130" d="M61 1004q0 247 120 359t384 112q265 0 384.5 -93t119.5 -297q0 -75 -22.5 -131.5t-58 -91t-79 -62t-86.5 -52.5t-78.5 -54t-58 -75t-22.5 -107h-254q0 86 19 151.5t48.5 104.5t66 69t73 53t66 47t48.5 61.5t19 86.5q0 88 -48.5 128t-152.5 40q-105 0 -153 -59.5 t-48 -189.5h-287zM365 147q0 89 42 129.5t134 40.5t134 -40.5t42 -129.5q0 -88 -42 -127.5t-134 -39.5q-93 0 -134.5 39.5t-41.5 127.5z" />
<glyph unicode="@" horiz-adv-x="1824" d="M82 512q0 435 200.5 631t643.5 196q429 0 623 -196t194 -631q0 -244 -83 -357.5t-251 -113.5q-216 0 -287 137q-89 -96 -284 -96q-201 0 -292 102t-91 328q0 236 91.5 343.5t293.5 107.5q162 0 266 -113l39 92h172h2l2 -553q-1 -92 20 -134t68 -42q58 0 84.5 71t26.5 228 q0 337 -140.5 488t-453.5 151q-327 0 -474.5 -151.5t-146.5 -487.5q-2 -324 123 -471t403 -147q87 0 161.5 20.5t108.5 40.5t58 41v-209q-34 -28 -122.5 -55t-205.5 -27q-393 -2 -571 190t-178 617zM690 512q0 -136 47 -197t150 -61q101 0 146.5 61.5t45.5 196.5 q0 138 -45.5 200t-146.5 62q-103 0 -150 -62t-47 -200z" />
<glyph unicode="A" horiz-adv-x="1417" d="M20 0l469 1434h472l436 -1434h-353l-86 295h-509l-91 -295h-338zM516 516h379l-186 639z" />
<glyph unicode="B" horiz-adv-x="1425" d="M164 0v1434h610q267 0 387.5 -90.5t120.5 -290.5q0 -69 -19 -124.5t-46.5 -86t-55 -51t-46.5 -27.5l-19 -6q5 -1 14 -4t34.5 -15t49 -27t52 -43t49 -60.5t34.5 -81.5t14 -105q0 -221 -131 -321.5t-421 -100.5h-627zM502 221h239q131 0 190.5 47.5t59.5 153.5 q0 114 -59.5 165.5t-190.5 51.5h-239v-418zM502 844h223q106 0 155.5 46t49.5 146q0 92 -49 134t-156 42h-223v-368z" />
<glyph unicode="C" horiz-adv-x="1568" d="M82 717q0 398 173.5 578t555.5 180q313 0 473 -124.5t203 -400.5h-336q-31 143 -110.5 206t-229.5 63q-197 0 -286 -119t-89 -383t89 -383t286 -119q145 0 224 62.5t116 205.5h336q-64 -275 -225 -399.5t-451 -124.5q-382 0 -555.5 180t-173.5 578z" />
<glyph unicode="D" horiz-adv-x="1519" d="M164 0v1434h561q375 0 544 -170t169 -547t-169 -547t-544 -170h-561zM502 238h207q198 0 287 113.5t89 365.5t-89 365.5t-287 113.5h-207v-958z" />
<glyph unicode="E" horiz-adv-x="1257" d="M164 0v1434h1032v-238h-694v-336h612v-237h-612v-385h694v-238h-1032z" />
<glyph unicode="F" horiz-adv-x="1236" d="M164 0v1434h1032v-238h-694v-336h612v-237h-612v-623h-338z" />
<glyph unicode="G" horiz-adv-x="1589" d="M82 717q0 398 174 578t559 180q301 0 461 -117t211 -375h-320q-31 125 -114 180.5t-238 55.5q-201 0 -290 -118t-89 -384q0 -264 90 -383t289 -119q197 0 285 91.5t88 295.5h-373v221h692v-106q0 -398 -164 -578t-528 -180q-385 0 -559 180t-174 578z" />
<glyph unicode="H" horiz-adv-x="1548" d="M164 0v1434h338v-541h547v541h335v-1434h-335v639h-547v-639h-338z" />
<glyph unicode="I" horiz-adv-x="665" d="M164 0v1434h338v-1434h-338z" />
<glyph unicode="J" horiz-adv-x="1175" d="M41 430v70h319v-70q0 -114 39.5 -164.5t128.5 -50.5q90 0 129 50t39 165v1004h336v-1004q0 -240 -121 -355.5t-383 -115.5q-254 0 -370.5 115.5t-116.5 355.5z" />
<glyph unicode="K" horiz-adv-x="1456" d="M164 0v1434h338v-557l485 557h408l-607 -697l648 -737h-408l-526 600v-600h-338z" />
<glyph unicode="L" horiz-adv-x="1175" d="M164 0v1434h338v-1178h612v-256h-950z" />
<glyph unicode="M" horiz-adv-x="1908" d="M164 0v1434h457l342 -977l342 977h440v-1434h-320v1022l-368 -1022h-205l-367 1022v-1022h-321z" />
<glyph unicode="N" horiz-adv-x="1581" d="M164 0v1434h391l543 -1014v1014h319v-1434h-389l-543 1014v-1014h-321z" />
<glyph unicode="O" horiz-adv-x="1630" d="M82 717q0 398 174 578t559 180t559 -180t174 -578t-174 -578t-559 -180t-559 180t-174 578zM436 717q0 -264 90 -383t289 -119q200 0 290.5 119t90.5 383t-90.5 383t-290.5 119q-199 0 -289 -119t-90 -383z" />
<glyph unicode="P" horiz-adv-x="1404" d="M164 0v1434h631q142 0 249.5 -36t171.5 -100t95.5 -146t31.5 -181t-31.5 -181t-95.5 -146t-171.5 -100t-249.5 -36h-293v-508h-338zM502 745h276q115 0 172.5 60t57.5 166t-58 165.5t-172 59.5h-276v-451z" />
<glyph unicode="Q" horiz-adv-x="1628" d="M82 717q0 398 173.5 578t557.5 180t558.5 -180.5t174.5 -577.5q0 -430 -207 -608l207 -252h-307l-115 139q-130 -37 -309 -37q-385 0 -559 180t-174 578zM430 717q0 -264 90 -383t289 -119q67 0 123 12l-268 326h307l153 -186q70 122 70 350q0 263 -92.5 382.5 t-292.5 119.5q-199 0 -289 -119t-90 -383z" />
<glyph unicode="R" horiz-adv-x="1478" d="M164 0v1434h655q142 0 250 -36t172 -100t95.5 -146t31.5 -181q0 -324 -293 -414l322 -557h-355l-286 524h-254v-524h-338zM502 745h301q114 0 171.5 60t57.5 166t-57.5 165.5t-171.5 59.5h-301v-451z" />
<glyph unicode="S" horiz-adv-x="1343" d="M82 410h303q0 -122 67.5 -176t219.5 -54q142 0 206 45t64 144q0 66 -46.5 111.5t-120.5 71.5t-163.5 47.5t-179 50.5t-163.5 70.5t-120.5 116.5t-46.5 179q0 241 135.5 350t434.5 109t434 -107.5t135 -343.5h-303q0 120 -63.5 174.5t-202.5 54.5q-132 0 -191 -44 t-59 -144q0 -44 28.5 -76t77.5 -53t112 -38t132.5 -35t139 -39t132.5 -55t112 -79t77.5 -114.5t28.5 -157.5q0 -242 -140 -350.5t-450 -108.5t-450 107t-140 344z" />
<glyph unicode="T" horiz-adv-x="1302" d="M61 1178v256h1180v-256h-422v-1178h-336v1178h-422z" />
<glyph unicode="U" horiz-adv-x="1507" d="M143 528v906h338v-906q0 -166 64 -239.5t209 -73.5t209.5 73.5t64.5 239.5v906h336v-906q0 -299 -144.5 -434t-465.5 -135t-466 135t-145 434z" />
<glyph unicode="V" horiz-adv-x="1400" d="M20 1434h338l342 -1213l342 1213h338l-436 -1434h-487z" />
<glyph unicode="W" horiz-adv-x="2072" d="M41 1434h338l244 -1110l211 1110h403h2l211 -1110l244 1110h338l-351 -1434h-438l-219 1106l-195 -1106h-438z" />
<glyph unicode="X" horiz-adv-x="1400" d="M20 0l447 737l-426 697h371l293 -498l301 498h354l-436 -697l456 -737h-370l-310 537l-325 -537h-355z" />
<glyph unicode="Y" horiz-adv-x="1359" d="M20 1434h371l297 -572l297 572h354l-491 -885v-549h-320v549z" />
<glyph unicode="Z" horiz-adv-x="1277" d="M61 0v203l744 993h-723v238h1114v-203l-743 -993h764v-238h-1156z" />
<glyph unicode="[" horiz-adv-x="663" d="M164 -410v1844h479v-222l-225 -2v-1398h225v-222h-479z" />
<glyph unicode="\" horiz-adv-x="804" d="M20 1434h273l491 -1434h-272z" />
<glyph unicode="]" horiz-adv-x="665" d="M20 -188h226v1398l-226 2v222h482v-1844h-482v222z" />
<glyph unicode="^" horiz-adv-x="1015" d="M61 655l293 717h308l292 -717h-239l-207 508l-207 -508h-240z" />
<glyph unicode="_" horiz-adv-x="1064" d="M0 0h1065v-221h-1065v221z" />
<glyph unicode="`" horiz-adv-x="626" d="M61 1434h308l196 -308h-239z" />
<glyph unicode="a" horiz-adv-x="1138" d="M61 303q0 183 117.5 265.5t378.5 82.5h176v45q0 92 -40.5 134t-131.5 42t-131 -36.5t-39 -118.5h-289q0 172 110.5 249.5t356.5 77.5q245 0 356 -90.5t111 -289.5v-664h-237l-35 86q-95 -106 -318 -106q-203 0 -294 76.5t-91 246.5zM365 319q0 -74 38 -104.5t125 -30.5 q117 0 161 62t44 182v51h-133q-42 0 -71 -2.5t-62.5 -11.5t-54 -26t-34 -47t-13.5 -73z" />
<glyph unicode="b" horiz-adv-x="1239" d="M123 0v1434h303v-482q105 92 305 92q235 0 341 -126t106 -406q0 -279 -105.5 -405.5t-340.5 -126.5q-224 0 -331 116l-41 -96h-237zM426 512q0 -163 53.5 -237t171.5 -74t172 74t54 237t-54 237t-172 74t-171.5 -74t-53.5 -237z" />
<glyph unicode="c" d="M61 512q0 280 130 406t419 126q245 0 365 -94t143 -303h-303q-17 92 -65.5 134t-139.5 42q-129 0 -187 -74t-58 -237t58 -237t187 -74q89 0 137.5 42t67.5 134h303q-23 -209 -143 -303t-365 -94q-289 0 -419 126t-130 406z" />
<glyph unicode="d" horiz-adv-x="1241" d="M61 512q0 280 106 406t341 126q202 0 307 -92v482h303v-1434h-237l-41 96q-104 -116 -332 -116q-235 0 -341 126t-106 406zM365 512q0 -163 53.5 -237t171.5 -74t171.5 74t53.5 237t-53.5 237t-171.5 74t-171.5 -74t-53.5 -237z" />
<glyph unicode="e" d="M61 512q0 280 125.5 406t403.5 126t403 -128t125 -412v-90h-751q12 -128 65.5 -187t157.5 -59q87 0 134 35.5t67 115.5h286q-34 -179 -149 -259t-338 -80q-278 0 -403.5 126t-125.5 406zM365 586h452q0 142 -53 206t-172 64q-107 0 -162 -64.5t-65 -205.5z" />
<glyph unicode="f" horiz-adv-x="892" d="M61 836v188h172v98q0 146 83 229t233 83h282v-222h-200q-94 0 -94 -90v-98h294v-188h-294v-836h-304v836h-172z" />
<glyph unicode="g" horiz-adv-x="1243" d="M61 512q0 280 106 406t341 126q230 0 336 -118l39 98h237v-922q0 -280 -125 -406t-403 -126q-229 0 -344.5 80.5t-143.5 259.5h287q17 -80 61 -116t123 -36q127 0 184.5 69.5t57.5 223.5v21q-105 -92 -307 -92q-235 0 -342 126.5t-107 405.5zM365 512q0 -163 53.5 -237 t171.5 -74q119 0 172 73.5t53 237.5t-53 237.5t-172 73.5t-172 -73.5t-53 -237.5z" />
<glyph unicode="h" horiz-adv-x="1202" d="M123 0v1434h303v-465q97 75 272 75q211 0 306.5 -116.5t95.5 -374.5v-553h-303v553q0 142 -43 206t-138 64q-100 0 -144 -63.5t-44 -206.5l2 -553l-2 8v-8h-303h-2z" />
<glyph unicode="i" horiz-adv-x="557" d="M102 1319q0 84 42 122t135 38q92 0 134 -38.5t42 -121.5q0 -85 -41.5 -122.5t-134.5 -37.5t-135 38t-42 122zM127 0v1024h303v-1024h-303z" />
<glyph unicode="j" horiz-adv-x="552" d="M-164 -147h160q61 0 94 33t33 89v1049h305v-1081q0 -146 -83.5 -229t-233.5 -83h-275v222zM98 1319q0 85 41.5 122.5t134.5 37.5q92 0 134.5 -38.5t42.5 -121.5q0 -84 -42 -122t-135 -38t-134.5 37.5t-41.5 122.5z" />
<glyph unicode="k" horiz-adv-x="1202" d="M123 0v1434h303v-805l356 395h359l-443 -492l484 -532h-359l-397 438v-438h-303z" />
<glyph unicode="l" horiz-adv-x="548" d="M123 0v1434h303v-1434h-303z" />
<glyph unicode="m" horiz-adv-x="1775" d="M123 0v1024h237l48 -115q81 138 280 138q211 0 295 -144q90 144 313 144q198 0 287.5 -117t89.5 -375v-553h-303v553q0 141 -37 205.5t-119 64.5q-86 0 -124.5 -64.5t-38.5 -205.5v-553h-303v553q0 142 -37 206t-119 64q-86 0 -126 -64.5t-40 -205.5v-555h-303z" />
<glyph unicode="n" horiz-adv-x="1200" d="M123 0v1024h237l-2 -2l37 -80q99 102 301 102q211 0 306.5 -116.5t95.5 -374.5v-553h-303v553q0 142 -43 206t-138 64q-98 0 -143 -58t-45 -187v-578h-303z" />
<glyph unicode="o" horiz-adv-x="1220" d="M61 512q0 280 130 406t419 126t419 -126t130 -406t-130 -406t-419 -126t-419 126t-130 406zM365 512q0 -164 58 -237.5t187 -73.5t187.5 74t58.5 237q0 164 -58.5 237.5t-187.5 73.5t-187 -73.5t-58 -237.5z" />
<glyph unicode="p" horiz-adv-x="1239" d="M121 -410v1434h237l41 -96q107 116 331 116q235 0 340.5 -126.5t105.5 -405.5q0 -280 -106 -406t-341 -126q-200 0 -305 92v-482h-303zM420 512q0 -163 53.5 -237t171.5 -74t171.5 74t53.5 237t-53 236t-172 73t-172 -73t-53 -236z" />
<glyph unicode="q" horiz-adv-x="1241" d="M61 512q0 280 106 406t341 126q228 0 332 -116l41 96h237v-1434h-303v482q-105 -92 -307 -92q-235 0 -341 126t-106 406zM365 512q0 -163 53.5 -237t171.5 -74t171.5 74t53.5 237t-53 236t-172 73t-172 -73t-53 -236z" />
<glyph unicode="r" horiz-adv-x="833" d="M121 2v1024h237l41 -96q49 60 107.5 87t138.5 27h148v-256h-148h-2q-116 0 -167.5 -64.5t-51.5 -209.5v-512h-303z" />
<glyph unicode="s" horiz-adv-x="1040" d="M61 307h287q0 -82 39 -118.5t125 -36.5t125 31t39 100q0 44 -33.5 72.5t-87.5 42.5t-119 25t-130 30t-119 48.5t-87.5 87.5t-33.5 140q0 166 105.5 240.5t340.5 74.5q226 0 328 -73t102 -234h-270q0 71 -38 103t-122 32q-85 0 -122.5 -26t-37.5 -84q0 -40 34.5 -66 t90 -39.5t122 -25.5t133.5 -32t122.5 -51t90 -90.5t34.5 -142.5q0 -177 -113 -256t-364 -79q-231 0 -336 78t-105 249z" />
<glyph unicode="t" horiz-adv-x="905" d="M82 836v188h164v258h305v-258h293v-188h-293v-492q0 -56 33 -89.5t92 -33.5h168v-221h-283q-150 0 -232.5 82.5t-82.5 228.5v525h-164z" />
<glyph unicode="u" horiz-adv-x="1200" d="M102 471v553h304v-553q0 -143 42.5 -206.5t137.5 -63.5t141.5 59t46.5 186l2 578h301v-1024h-237l2 2l-37 80q-99 -102 -301 -102q-211 0 -306.5 116.5t-95.5 374.5z" />
<glyph unicode="v" horiz-adv-x="1122" d="M20 1024h322l225 -823l213 823h322l-314 -1024h-454z" />
<glyph unicode="w" horiz-adv-x="1769" d="M41 1024h305l197 -782l164 782h372l150 -780l196 780h304l-302 -1024h-372l-170 811l-170 -811h-371z" />
<glyph unicode="x" horiz-adv-x="1089" d="M20 0l338 532l-317 492h321l183 -315l182 315h322l-318 -492l338 -532h-321l-203 354l-203 -354h-322z" />
<glyph unicode="y" horiz-adv-x="1097" d="M18 1024h289l268 -647l213 647h287l-344 -987q-78 -214 -180 -310t-250 -96h-147v189h131q57 0 97.5 43.5t72.5 140.5h-2l8 23z" />
<glyph unicode="z" horiz-adv-x="1032" d="M61 0v170l533 649h-512v205h868v-170l-530 -649h551v-205h-910z" />
<glyph unicode="{" horiz-adv-x="786" d="M82 428v188q70 0 102.5 32.5t32.5 103.5v360q0 169 71 245.5t228 76.5h250v-222h-184q-59 0 -85 -29t-26 -93v-310q0 -107 -31 -168.5t-98 -89.5q68 -28 98.5 -89.5t30.5 -170.5v-328q0 -64 26 -93t85 -29h184v-222h-250q-157 0 -228 76.5t-71 245.5v381q0 71 -32.5 103 t-102.5 32z" />
<glyph unicode="|" horiz-adv-x="581" d="M164 -410v1844h254v-1844h-254z" />
<glyph unicode="}" horiz-adv-x="786" d="M20 -188h185q58 0 84 28.5t26 93.5v328q0 109 30.5 170.5t98.5 89.5q-68 28 -98.5 89.5t-30.5 168.5v310q0 65 -26 93.5t-84 28.5h-185v222h250q157 0 228 -76.5t71 -245.5v-360q0 -70 32.5 -103t103.5 -33v-188q-71 0 -103.5 -32.5t-32.5 -102.5v-381q0 -169 -71 -245.5 t-228 -76.5h-250v222z" />
<glyph unicode="~" horiz-adv-x="1351" d="M61 430v209q84 82 178 106.5t182 3.5t179 -61.5t180.5 -81.5t174 -64t172.5 -2.5t163 97.5v-207q-66 -65 -138.5 -95t-141 -27t-140 24t-141.5 53.5t-139 65t-138 55.5t-133.5 28.5t-131.5 -19.5t-126 -85z" />
<glyph unicode="&#xa1;" horiz-adv-x="598" d="M123 872q0 88 42 128t134 40t134 -40t42 -128q0 -89 -42 -129.5t-134 -40.5t-134 40.5t-42 129.5zM152 -20l65 520h189l65 -520v-390h-319v390z" />
<glyph unicode="&#xa2;" d="M61 506q0 250 103 376.5t328 151.5v170h237v-170q183 -20 276 -113.5t113 -275.5h-303q-17 93 -66.5 134.5t-142.5 41.5q-126 0 -183.5 -74t-57.5 -237t57 -237t182 -74q93 0 142.5 41.5t68.5 134.5h303q-20 -182 -113 -275.5t-276 -113.5v-187h-237v178 q-225 25 -328 152t-103 377z" />
<glyph unicode="&#xa3;" horiz-adv-x="1343" d="M82 -2v276q105 40 143.5 115.5t38.5 194.5v32h-182v222h182v184q0 233 113 342t360 109q122 0 209 -22t150.5 -73.5t94 -139.5t30.5 -216h-289q0 129 -42 187.5t-136 58.5q-56 0 -94 -18.5t-57 -54.5t-26.5 -76.5t-7.5 -96.5v-184h488v-222h-488v-32q0 -132 -47.5 -215.5 t-167.5 -130.5h928v-2v-238h-1200z" />
<glyph unicode="&#xa4;" horiz-adv-x="1284" d="M82 45l102 102q-92 126 -92 365q0 236 92 362l-102 103l154 156l129 -129q107 38 278 38q172 0 279 -38l127 129l153 -156l-102 -103q92 -126 92 -362q0 -239 -92 -365l102 -102l-153 -154l-127 129q-107 -38 -279 -38q-171 0 -278 38l-127 -129zM397 512 q0 -164 58.5 -237.5t187.5 -73.5t187.5 74t58.5 237q0 164 -58.5 237.5t-187.5 73.5t-187.5 -73.5t-58.5 -237.5z" />
<glyph unicode="&#xa5;" horiz-adv-x="1400" d="M41 1434h371l297 -572l297 572h354l-344 -619h270v-205h-383l-35 -61v-119h418v-205h-418v-225h-319v225h-434v205h434v119l-35 61h-399v205h280z" />
<glyph unicode="&#xa7;" horiz-adv-x="1318" d="M82 537q0 115 43 188t135 113q-76 89 -76 223q0 217 112 315.5t359 98.5q241 0 350 -107t109 -344h-254q0 121 -48.5 175t-156.5 54q-97 0 -140.5 -37.5t-43.5 -121.5q0 -43 26 -75t70.5 -52.5t102 -37t121 -33.5t127 -37t121 -51t102 -71.5t70.5 -104t26 -143.5 q0 -223 -158 -309q56 -82 56 -196q0 -228 -120.5 -331.5t-387.5 -103.5q-243 0 -353 107.5t-110 343.5h254q0 -121 49.5 -175t159.5 -54q107 0 154.5 38.5t47.5 124.5q0 48 -25.5 83.5t-69 57t-99.5 38.5t-118 32t-123.5 33t-117.5 47t-99.5 68t-69 101.5t-25.5 142.5z M369 567q0 -46 30.5 -79t87.5 -54t117 -36t141.5 -36.5t137.5 -44.5q67 38 67 136q0 44 -27 76.5t-80 55t-106.5 38t-132 37.5t-131.5 42q-104 -29 -104 -135z" />
<glyph unicode="&#xa8;" horiz-adv-x="927" d="M61 1352q0 88 42.5 128t134.5 40t134 -40t42 -128t-42 -128t-134 -40q-93 0 -135 39.5t-42 128.5zM512 1352q0 88 42 128t134 40q94 0 136 -40t42 -128t-42 -128t-136 -40q-93 0 -134.5 39.5t-41.5 128.5z" />
<glyph unicode="&#xa9;" horiz-adv-x="1744" d="M82 717q0 398 187.5 578t602.5 180t603 -180.5t188 -577.5t-188 -577.5t-603 -180.5t-602.5 180t-187.5 578zM287 717q0 -298 139 -434t446 -136t446.5 136t139.5 434t-139.5 433.5t-446.5 135.5q-308 0 -446.5 -135t-138.5 -434zM446 717q0 215 101 312t325 97 q201 0 300.5 -77.5t119.5 -249.5h-237q-17 83 -60 119t-123 36q-99 0 -143.5 -56t-44.5 -181q0 -238 188 -238q80 0 123 36.5t62 119.5h237q-22 -172 -122.5 -250t-299.5 -78q-224 0 -325 97.5t-101 312.5z" />
<glyph unicode="&#xab;" horiz-adv-x="1087" d="M61 532l261 390h288l-243 -390l243 -409h-288zM475 532l262 390h289l-244 -390l244 -409h-289z" />
<glyph unicode="&#xac;" horiz-adv-x="1208" d="M61 434v221h1065v-487h-239v266h-826z" />
<glyph unicode="&#xad;" horiz-adv-x="798" d="M61 434v221h676v-221h-676z" />
<glyph unicode="&#xae;" horiz-adv-x="1744" d="M82 717q0 398 187.5 578t602.5 180t603 -180.5t188 -577.5t-188 -577.5t-603 -180.5t-602.5 180t-187.5 578zM287 717q0 -300 138 -435t447 -135t447.5 135t138.5 435q0 299 -138.5 434t-447.5 135t-447 -134.5t-138 -434.5zM553 1085h365q166 0 240.5 -57t74.5 -184 q0 -91 -38.5 -145.5t-121.5 -77.5l180 -273h-206l-156 254h-150v-254h-186zM741 741h177q68 0 96.5 24t27.5 79q0 54 -28.5 78t-95.5 24h-177v-205z" />
<glyph unicode="&#xaf;" horiz-adv-x="819" d="M61 1237v172h697v-172h-697z" />
<glyph unicode="&#xb0;" horiz-adv-x="901" d="M61 1065q0 204 93 296.5t297 92.5t296.5 -92.5t92.5 -296.5t-92.5 -296.5t-296.5 -92.5t-297 92.5t-93 296.5zM250 1065q0 -115 47.5 -166t153.5 -51t152 50.5t46 166.5t-46 166.5t-152 50.5t-153.5 -51t-47.5 -166z" />
<glyph unicode="&#xb1;" horiz-adv-x="1187" d="M61 0v221h1065v-221h-1065zM61 573v222h414v229h238v-229h413v-222h-413v-254h-238v254h-414z" />
<glyph unicode="&#xb4;" horiz-adv-x="626" d="M61 1126l197 308h307l-264 -308h-240z" />
<glyph unicode="&#xb6;" horiz-adv-x="1658" d="M61 1024q0 215 121.5 312.5t390.5 97.5h963v-222h-193v-1622h-256v1622h-333v-1622h-254v1024q-230 0 -334.5 97.5t-104.5 312.5z" />
<glyph unicode="&#xb7;" horiz-adv-x="475" d="M61 524q0 88 42.5 128t134.5 40t134 -40t42 -128t-42 -128t-134 -40q-93 0 -135 39.5t-42 128.5z" />
<glyph unicode="&#xb8;" horiz-adv-x="544" d="M61 -389q199 0 199 102q0 40 -48 59t-114 19l76 275h160l-43 -168q8 -2 21 -5t46 -17.5t58 -33.5t46 -53.5t21 -75.5q0 -106 -112 -165.5t-310 -59.5v123z" />
<glyph unicode="&#xbb;" horiz-adv-x="1091" d="M61 123l248 409l-248 390h289l264 -390l-264 -409h-289zM475 123l250 409l-250 390h291l264 -390l-264 -409h-291z" />
<glyph unicode="&#xbf;" horiz-adv-x="1130" d="M61 -61q0 75 22.5 131.5t58 91t79 62t87 52.5t79 54t58 75t22.5 107h254q0 -86 -18.5 -151.5t-48.5 -104.5t-66 -69t-72 -53t-66 -47t-48.5 -61.5t-18.5 -86.5q0 -88 47.5 -128t151.5 -40q106 0 153 59t47 190h287q0 -248 -119.5 -359.5t-384.5 -111.5q-264 0 -384 93 t-120 297zM418 872q0 88 42 128t134 40q93 0 134.5 -40t41.5 -128q0 -90 -41.5 -130t-134.5 -40q-92 0 -134 40.5t-42 129.5z" />
<glyph unicode="&#xc0;" horiz-adv-x="1417" d="M20 0l469 1434h472l436 -1434h-353l-86 295h-509l-91 -295h-338zM383 1782h274l209 -246h-223zM516 516h379l-184 639z" />
<glyph unicode="&#xc1;" horiz-adv-x="1417" d="M20 0l469 1434h472l436 -1434h-353l-86 295h-509l-91 -295h-338zM516 516h379l-184 639zM580 1536l194 246h291l-244 -246h-241z" />
<glyph unicode="&#xc2;" horiz-adv-x="1417" d="M20 0l469 1434h472l436 -1434h-353l-86 295h-509l-91 -295h-338zM395 1536l176 246h303l177 -246h-207l-121 123l-121 -123h-207zM516 516h379l-184 639z" />
<glyph unicode="&#xc3;" horiz-adv-x="1417" d="M20 0l469 1434h472l436 -1434h-353l-86 295h-509l-91 -295h-338zM383 1556q0 104 59.5 163t149.5 59q60 0 107.5 -16t72.5 -35.5t55.5 -35.5t59.5 -16q22 0 37.5 18.5t15.5 47.5h123q0 -104 -59.5 -162.5t-149.5 -58.5q-60 0 -107.5 16t-72.5 35t-55.5 35t-59.5 16 q-22 0 -37.5 -18.5t-15.5 -47.5h-123zM516 516h379l-184 639z" />
<glyph unicode="&#xc4;" horiz-adv-x="1417" d="M20 0l469 1434h472l436 -1434h-353l-86 295h-509l-91 -295h-338zM305 1651q0 75 41.5 109t134.5 34q92 0 134 -34t42 -109t-42 -109.5t-134 -34.5q-93 0 -134.5 34.5t-41.5 109.5zM516 516h379l-184 639zM788 1651q0 75 42.5 109t134.5 34q93 0 135.5 -34t42.5 -109 t-42.5 -109.5t-135.5 -34.5q-92 0 -134.5 34.5t-42.5 109.5z" />
<glyph unicode="&#xc5;" horiz-adv-x="1417" d="M20 0l469 1434h472l436 -1434h-353l-86 295h-509l-91 -295h-338zM469 1708q0 114 60.5 165.5t193.5 51.5t193.5 -51.5t60.5 -165.5t-60.5 -165.5t-193.5 -51.5t-193.5 51.5t-60.5 165.5zM516 516h379l-184 639zM625 1708q0 -50 23 -72t75 -22q53 0 75.5 22t22.5 72 q0 51 -22.5 72.5t-75.5 21.5t-75.5 -21.5t-22.5 -72.5z" />
<glyph unicode="&#xc6;" horiz-adv-x="1929" d="M20 0l717 1434h1131v-238h-625v-336h543v-237h-543v-385h625v-238h-930v295h-438l-142 -295h-338zM608 516h330v686z" />
<glyph unicode="&#xc7;" horiz-adv-x="1568" d="M82 717q0 398 173.5 578t555.5 180q313 0 473 -124.5t203 -400.5h-336q-31 143 -110.5 206t-229.5 63q-197 0 -286 -119t-89 -383t89 -383t286 -119q145 0 224 62.5t116 205.5h336q-62 -260 -207.5 -385t-402.5 -137l-17 -63q8 -2 21 -5t46 -17.5t58.5 -33.5t46.5 -53.5 t21 -75.5q0 -106 -111.5 -165.5t-310.5 -59.5v123q200 0 200 102q0 27 -25 45.5t-60.5 25.5t-77.5 7l49 170q-331 22 -483 203t-152 553z" />
<glyph unicode="&#xc8;" horiz-adv-x="1257" d="M164 0v1434h1032v-238h-694v-336h612v-237h-612v-385h694v-238h-1032zM340 1782h274l209 -246h-225z" />
<glyph unicode="&#xc9;" horiz-adv-x="1257" d="M164 0v1434h1032v-238h-694v-336h612v-237h-612v-385h694v-238h-1032zM537 1536l192 246h291l-242 -246h-241z" />
<glyph unicode="&#xca;" horiz-adv-x="1257" d="M164 0v1434h1032v-238h-694v-336h612v-237h-612v-385h694v-238h-1032zM352 1536l176 246h303l177 -246h-207l-121 123l-121 -123h-207z" />
<glyph unicode="&#xcb;" horiz-adv-x="1257" d="M164 0v1434h1032v-238h-694v-336h612v-237h-612v-385h694v-238h-1032zM262 1651q0 75 41.5 109t134.5 34q92 0 134 -34t42 -109t-42.5 -109.5t-135.5 -34.5q-92 0 -133 34.5t-41 109.5zM745 1651q0 75 42.5 109t134.5 34q93 0 135.5 -34t42.5 -109t-43 -109.5t-135 -34.5 t-134.5 34.5t-42.5 109.5z" />
<glyph unicode="&#xcc;" horiz-adv-x="673" d="M0 1782h274l209 -246h-223zM172 0v1434h338v-1434h-338z" />
<glyph unicode="&#xcd;" horiz-adv-x="673" d="M164 0v1434h338v-1434h-338zM188 1536l195 246h291l-244 -246h-242z" />
<glyph unicode="&#xce;" horiz-adv-x="655" d="M0 1536l176 246h305l174 -246h-206l-121 123l-119 -123h-209zM160 0v1434h338v-1434h-338z" />
<glyph unicode="&#xcf;" horiz-adv-x="665" d="M-82 1647q0 75 41.5 109t134.5 34q92 0 134 -34t42 -109t-42 -109.5t-134 -34.5t-134 34.5t-42 109.5zM164 0v1434h338v-1434h-338zM393 1647q0 75 42 109t134 34q94 0 136.5 -34t42.5 -109t-42.5 -109.5t-136.5 -34.5q-92 0 -134 34.5t-42 109.5z" />
<glyph unicode="&#xd1;" horiz-adv-x="1581" d="M164 0v1434h391l543 -1014v1014h319v-1434h-389l-543 1014v-1014h-321zM451 1556q0 104 59 163t149 59q60 0 107.5 -16t72.5 -35.5t55.5 -35.5t59.5 -16q22 0 38 18.5t16 47.5h122q0 -104 -59 -162.5t-149 -58.5q-60 0 -107.5 16t-72.5 35t-55.5 35t-59.5 16 q-22 0 -38 -18.5t-16 -47.5h-122z" />
<glyph unicode="&#xd2;" horiz-adv-x="1630" d="M82 717q0 398 174 578t559 180t559 -180t174 -578t-174 -578t-559 -180t-559 180t-174 578zM436 717q0 -264 90 -383t289 -119q200 0 290.5 119t90.5 383t-90.5 383t-290.5 119q-199 0 -289 -119t-90 -383zM475 1782h275l208 -246h-225z" />
<glyph unicode="&#xd3;" horiz-adv-x="1630" d="M82 717q0 398 174 578t559 180t559 -180t174 -578t-174 -578t-559 -180t-559 180t-174 578zM436 717q0 -264 90 -383t289 -119q200 0 290.5 119t90.5 383t-90.5 383t-290.5 119q-199 0 -289 -119t-90 -383zM672 1536l192 246h291l-242 -246h-241z" />
<glyph unicode="&#xd4;" horiz-adv-x="1630" d="M82 717q0 398 174 578t559 180t559 -180t174 -578t-174 -578t-559 -180t-559 180t-174 578zM436 717q0 -264 90 -383t289 -119q200 0 290.5 119t90.5 383t-90.5 383t-290.5 119q-199 0 -289 -119t-90 -383zM487 1536l177 246h303l176 -246h-207l-121 123l-121 -123h-207z " />
<glyph unicode="&#xd5;" horiz-adv-x="1630" d="M82 717q0 398 174 578t559 180t559 -180t174 -578t-174 -578t-559 -180t-559 180t-174 578zM436 717q0 -264 90 -383t289 -119q200 0 290.5 119t90.5 383t-90.5 383t-290.5 119q-199 0 -289 -119t-90 -383zM475 1556q0 104 59.5 163t149.5 59q60 0 107.5 -16t72.5 -35.5 t55.5 -35.5t59.5 -16q22 0 37.5 18.5t15.5 47.5h123q0 -104 -59.5 -162.5t-149.5 -58.5q-60 0 -107.5 16t-72.5 35t-55.5 35t-59.5 16q-22 0 -37.5 -18.5t-15.5 -47.5h-123z" />
<glyph unicode="&#xd6;" horiz-adv-x="1630" d="M82 717q0 398 174 578t559 180t559 -180t174 -578t-174 -578t-559 -180t-559 180t-174 578zM397 1647q0 75 41.5 109t134.5 34q92 0 134.5 -34t42.5 -109t-42.5 -109.5t-134.5 -34.5q-93 0 -134.5 34.5t-41.5 109.5zM436 717q0 -264 90 -383t289 -119q200 0 290.5 119 t90.5 383t-90.5 383t-290.5 119q-199 0 -289 -119t-90 -383zM881 1647q0 75 42 109t134 34q93 0 135.5 -34t42.5 -109t-42.5 -109.5t-135.5 -34.5q-92 0 -134 34.5t-42 109.5z" />
<glyph unicode="&#xd7;" horiz-adv-x="1110" d="M61 190l324 324l-324 324l166 168l326 -324l326 326l170 -172l-324 -324l324 -324l-170 -172l-324 326l-324 -324z" />
<glyph unicode="&#xd8;" horiz-adv-x="1628" d="M82 715q0 398 174 578t559 180q75 0 172 -11l47 131h201l-61 -176q192 -70 282 -241.5t90 -460.5q0 -398 -174 -578t-559 -180q-77 0 -145 6l-45 -129h-205l59 168q-204 67 -299.5 241t-95.5 472zM440 715q0 -320 138 -432l323 927q-47 7 -82 7q-199 0 -289 -119 t-90 -383zM758 217q18 -2 59 -2q200 0 290.5 119t90.5 383q0 301 -121 416z" />
<glyph unicode="&#xd9;" horiz-adv-x="1507" d="M143 528v906h338v-906q0 -166 64 -239.5t209 -73.5t209.5 73.5t64.5 239.5v906h336v-906q0 -299 -144.5 -434t-465.5 -135t-466 135t-145 434zM414 1782h274l209 -246h-225z" />
<glyph unicode="&#xda;" horiz-adv-x="1507" d="M143 528v906h338v-906q0 -166 64 -239.5t209 -73.5t209.5 73.5t64.5 239.5v906h336v-906q0 -299 -144.5 -434t-465.5 -135t-466 135t-145 434zM610 1536l193 246h291l-242 -246h-242z" />
<glyph unicode="&#xdb;" horiz-adv-x="1507" d="M143 528v906h338v-906q0 -166 64 -239.5t209 -73.5t209.5 73.5t64.5 239.5v906h336v-906q0 -299 -144.5 -434t-465.5 -135t-466 135t-145 434zM426 1536l176 246h303l176 -246h-207l-120 123l-121 -123h-207z" />
<glyph unicode="&#xdc;" horiz-adv-x="1507" d="M143 528v906h338v-906q0 -166 64 -239.5t209 -73.5t209.5 73.5t64.5 239.5v906h336v-906q0 -299 -144.5 -434t-465.5 -135t-466 135t-145 434zM336 1647q0 75 41.5 109t134.5 34q92 0 134 -34t42 -109t-42 -109.5t-134 -34.5q-93 0 -134.5 34.5t-41.5 109.5zM819 1647 q0 75 42 109t134 34q93 0 136 -34t43 -109t-42.5 -109.5t-136.5 -34.5q-92 0 -134 34.5t-42 109.5z" />
<glyph unicode="&#xdd;" horiz-adv-x="1359" d="M20 1434h371l297 -572l297 572h354l-491 -885v-549h-320v549zM549 1536l194 246h291l-243 -246h-242z" />
<glyph unicode="&#xdf;" horiz-adv-x="1361" d="M143 0v967q0 262 136.5 385t404.5 123q93 0 165 -8.5t144 -34t119 -67.5t76 -113t29 -167q0 -110 -54 -175.5t-170 -104.5q151 -41 219 -131t68 -248q0 -224 -103 -325t-329 -101q-52 0 -107 10t-85 20l-29 11v205q73 -25 139 -25q109 0 159 53t50 168q0 122 -74.5 182 t-232.5 60v209q140 0 201 40t61 132q0 97 -54.5 142.5t-175.5 45.5q-133 0 -193.5 -65.5t-60.5 -196.5v-991h-303z" />
<glyph unicode="&#xe0;" horiz-adv-x="1138" d="M61 303q0 183 117.5 265.5t378.5 82.5h176v45q0 92 -40.5 134t-131.5 42t-131 -36.5t-39 -118.5h-289q0 172 110.5 249.5t356.5 77.5q245 0 356 -90.5t111 -289.5v-664h-237l-35 86q-95 -106 -318 -106q-203 0 -294 76.5t-91 246.5zM209 1434h307l197 -308h-240zM365 319 q0 -74 38 -104.5t125 -30.5q117 0 161 62t44 182v51h-133q-42 0 -71 -2.5t-62.5 -11.5t-54 -26t-34 -47t-13.5 -73z" />
<glyph unicode="&#xe1;" horiz-adv-x="1138" d="M61 303q0 183 117.5 265.5t378.5 82.5h176v45q0 92 -40.5 134t-131.5 42t-131 -36.5t-39 -118.5h-289q0 172 110.5 249.5t356.5 77.5q245 0 356 -90.5t111 -289.5v-664h-237l-35 86q-95 -106 -318 -106q-203 0 -294 76.5t-91 246.5zM365 319q0 -74 38 -104.5t125 -30.5 q117 0 161 62t44 182v51h-133q-42 0 -71 -2.5t-62.5 -11.5t-54 -26t-34 -47t-13.5 -73zM410 1126l198 308h305l-262 -308h-241z" />
<glyph unicode="&#xe2;" horiz-adv-x="1138" d="M61 303q0 183 117.5 265.5t378.5 82.5h176v45q0 92 -40.5 134t-131.5 42t-131 -36.5t-39 -118.5h-289q0 172 110.5 249.5t356.5 77.5q245 0 356 -90.5t111 -289.5v-664h-237l-35 86q-95 -106 -318 -106q-203 0 -294 76.5t-91 246.5zM246 1126l172 308h303l172 -308h-191 l-133 168l-133 -168h-190zM365 319q0 -74 38 -104.5t125 -30.5q117 0 161 62t44 182v51h-133q-42 0 -71 -2.5t-62.5 -11.5t-54 -26t-34 -47t-13.5 -73z" />
<glyph unicode="&#xe3;" horiz-adv-x="1138" d="M61 303q0 183 117.5 265.5t378.5 82.5h176v45q0 92 -40.5 134t-131.5 42t-131 -36.5t-39 -118.5h-289q0 172 110.5 249.5t356.5 77.5q245 0 356 -90.5t111 -289.5v-664h-237l-35 86q-95 -106 -318 -106q-203 0 -294 76.5t-91 246.5zM229 1184q0 107 61.5 182.5 t147.5 75.5q49 0 89 -16.5t65 -39.5t45.5 -46.5t40.5 -40t39 -17.5q23 0 38 23t15 63h139q0 -107 -61.5 -182.5t-147.5 -75.5q-49 0 -89 16.5t-64.5 40t-44.5 47t-40 40t-40 16.5q-23 0 -38 -23t-15 -63h-140zM365 319q0 -74 38 -104.5t125 -30.5q117 0 161 62t44 182v51 h-133q-42 0 -71 -2.5t-62.5 -11.5t-54 -26t-34 -47t-13.5 -73z" />
<glyph unicode="&#xe4;" horiz-adv-x="1138" d="M61 303q0 183 117.5 265.5t378.5 82.5h176v45q0 92 -40.5 134t-131.5 42t-131 -36.5t-39 -118.5h-289q0 172 110.5 249.5t356.5 77.5q245 0 356 -90.5t111 -289.5v-664h-237l-35 86q-95 -106 -318 -106q-203 0 -294 76.5t-91 246.5zM168 1323q0 89 41 128.5t135 39.5 q93 0 134.5 -39.5t41.5 -128.5q0 -88 -42 -128t-134 -40q-94 0 -135 39.5t-41 128.5zM365 319q0 -74 38 -104.5t125 -30.5q117 0 161 62t44 182v51h-133q-42 0 -71 -2.5t-62.5 -11.5t-54 -26t-34 -47t-13.5 -73zM618 1323q0 89 42 128.5t135 39.5q94 0 136 -39.5t42 -128.5 q0 -88 -43 -128t-135 -40q-93 0 -135 39.5t-42 128.5z" />
<glyph unicode="&#xe5;" horiz-adv-x="1138" d="M61 303q0 183 117.5 265.5t378.5 82.5h176v45q0 92 -40.5 134t-131.5 42t-131 -36.5t-39 -118.5h-289q0 172 110.5 249.5t356.5 77.5q245 0 356 -90.5t111 -289.5v-664h-237l-35 86q-95 -106 -318 -106q-203 0 -294 76.5t-91 246.5zM315 1298q0 114 60.5 166t193.5 52 t193.5 -52t60.5 -166t-60.5 -165.5t-193.5 -51.5t-193.5 51.5t-60.5 165.5zM365 319q0 -74 38 -104.5t125 -30.5q117 0 161 62t44 182v51h-133q-42 0 -71 -2.5t-62.5 -11.5t-54 -26t-34 -47t-13.5 -73zM471 1298q0 -50 23 -72t75 -22q54 0 76.5 22t22.5 72q0 51 -23 73 t-76 22t-75.5 -22t-22.5 -73z" />
<glyph unicode="&#xe6;" horiz-adv-x="1892" d="M61 303q0 174 106 257.5t339 90.5h227v45q0 85 -42.5 122.5t-137.5 37.5q-88 0 -126 -32.5t-36 -106.5h-289q0 172 110.5 249.5t356.5 77.5q255 0 344 -137q105 137 349 137q278 0 403 -128t125 -412v-90h-752q12 -128 66 -187t160 -59q85 0 131.5 35.5t66.5 115.5h289 q-34 -179 -149 -259t-338 -80q-158 0 -256.5 55t-145.5 172q-39 -118 -141 -172.5t-275 -54.5q-202 0 -293.5 77t-91.5 246zM365 319q0 -71 42 -103t136 -32q100 0 145 51.5t45 165.5v78h-143q-119 0 -172 -37.5t-53 -122.5zM1036 586h451q1 142 -51.5 206t-171.5 64 q-108 0 -163 -64.5t-65 -205.5z" />
<glyph unicode="&#xe7;" d="M61 512q0 280 130 406t419 126q245 0 365 -94t143 -303h-303q-17 92 -65.5 134t-139.5 42q-129 0 -187 -74t-58 -237t58 -237t187 -74q89 0 137.5 42t67.5 134h303q-22 -194 -127 -288.5t-315 -106.5l-21 -84q8 -2 21 -5t46 -17.5t58.5 -33.5t46.5 -53.5t21 -75.5 q0 -106 -111.5 -165.5t-310.5 -59.5v123q201 0 201 102q0 39 -48.5 58.5t-115.5 19.5l55 193q-239 19 -348 145t-109 383z" />
<glyph unicode="&#xe8;" d="M61 512q0 280 125.5 406t403.5 126t403 -128t125 -412v-90h-751q12 -128 65.5 -187t157.5 -59q87 0 134 35.5t67 115.5h286q-34 -179 -149 -259t-338 -80q-278 0 -403.5 126t-125.5 406zM231 1434h308l196 -308h-239zM365 586h452q0 142 -53 206t-172 64 q-107 0 -162 -64.5t-65 -205.5z" />
<glyph unicode="&#xe9;" d="M61 512q0 280 125.5 406t403.5 126t403 -128t125 -412v-90h-751q12 -128 65.5 -187t157.5 -59q87 0 134 35.5t67 115.5h286q-34 -179 -149 -259t-338 -80q-278 0 -403.5 126t-125.5 406zM365 586h452q0 142 -53 206t-172 64q-107 0 -162 -64.5t-65 -205.5zM449 1126 l198 308h305l-262 -308h-241z" />
<glyph unicode="&#xea;" d="M61 512q0 280 125.5 406t403.5 126t403 -128t125 -412v-90h-751q12 -128 65.5 -187t157.5 -59q87 0 134 35.5t67 115.5h286q-34 -179 -149 -259t-338 -80q-278 0 -403.5 126t-125.5 406zM268 1126l172 308h303l172 -308h-190l-133 168l-133 -168h-191zM365 586h452 q0 142 -53 206t-172 64q-107 0 -162 -64.5t-65 -205.5z" />
<glyph unicode="&#xeb;" d="M61 512q0 280 125.5 406t403.5 126t403 -128t125 -412v-90h-751q12 -128 65.5 -187t157.5 -59q87 0 134 35.5t67 115.5h286q-34 -179 -149 -259t-338 -80q-278 0 -403.5 126t-125.5 406zM190 1323q0 89 41.5 128.5t135.5 39.5q93 0 134.5 -39.5t41.5 -128.5 q0 -88 -42 -128t-134 -40q-94 0 -135.5 39.5t-41.5 128.5zM365 586h452q0 142 -53 206t-172 64q-107 0 -162 -64.5t-65 -205.5zM641 1323q0 89 41.5 128.5t134.5 39.5q94 0 136 -39.5t42 -128.5q0 -88 -43 -128t-135 -40q-93 0 -134.5 39.5t-41.5 128.5z" />
<glyph unicode="&#xec;" horiz-adv-x="512" d="M-102 1434h307l196 -308h-239zM106 0v1024h304v-1024h-304z" />
<glyph unicode="&#xed;" horiz-adv-x="526" d="M102 1126l199 308h307l-264 -308h-242zM111 0v1024h303v-1024h-303z" />
<glyph unicode="&#xee;" horiz-adv-x="524" d="M-61 1126l172 308h303l172 -308h-191l-133 168l-133 -168h-190zM111 0v1024h303v-1024h-303z" />
<glyph unicode="&#xef;" horiz-adv-x="509" d="M-143 1311q0 90 41.5 130t134.5 40q92 0 134 -40.5t42 -129.5q0 -88 -42 -128t-134 -40q-93 0 -134.5 40t-41.5 128zM102 0v1024h304v-1024h-304zM299 1311q0 89 42 129.5t134 40.5q94 0 136 -40.5t42 -129.5q0 -88 -42 -128t-136 -40q-92 0 -134 40t-42 128z" />
<glyph unicode="&#xf1;" horiz-adv-x="1200" d="M123 0v1024h237l-2 -2l37 -80q99 102 301 102q211 0 306.5 -116.5t95.5 -374.5v-553h-303v553q0 142 -43 206t-138 64q-98 0 -143 -58t-45 -187v-578h-303zM268 1184q0 107 61.5 182.5t147.5 75.5q49 0 89 -16.5t65 -39.5t45.5 -46.5t40.5 -40t39 -17.5q23 0 38 23t15 63 h139q0 -107 -61.5 -182.5t-147.5 -75.5q-49 0 -89 16.5t-64.5 40t-44.5 47t-40 40t-40 16.5q-23 0 -38 -23t-15 -63h-140z" />
<glyph unicode="&#xf2;" horiz-adv-x="1220" d="M61 512q0 280 130 406t419 126t419 -126t130 -406t-130 -406t-419 -126t-419 126t-130 406zM250 1434h307l197 -308h-240zM365 512q0 -164 58 -237.5t187 -73.5t187.5 74t58.5 237q0 164 -58.5 237.5t-187.5 73.5t-187 -73.5t-58 -237.5z" />
<glyph unicode="&#xf3;" horiz-adv-x="1220" d="M61 512q0 280 130 406t419 126t419 -126t130 -406t-130 -406t-419 -126t-419 126t-130 406zM365 512q0 -164 58 -237.5t187 -73.5t187.5 74t58.5 237q0 164 -58.5 237.5t-187.5 73.5t-187 -73.5t-58 -237.5zM467 1126l199 308h305l-262 -308h-242z" />
<glyph unicode="&#xf4;" horiz-adv-x="1220" d="M61 512q0 280 130 406t419 126t419 -126t130 -406t-130 -406t-419 -126t-419 126t-130 406zM287 1126l172 308h303l172 -308h-191l-133 168l-133 -168h-190zM365 512q0 -164 58 -237.5t187 -73.5t187.5 74t58.5 237q0 164 -58.5 237.5t-187.5 73.5t-187 -73.5t-58 -237.5 z" />
<glyph unicode="&#xf5;" horiz-adv-x="1220" d="M61 512q0 280 130 406t419 126t419 -126t130 -406t-130 -406t-419 -126t-419 126t-130 406zM270 1184q0 107 61.5 182.5t147.5 75.5q49 0 89 -16.5t65 -39.5t45.5 -46.5t40.5 -40t39 -17.5q23 0 38 23t15 63h139q0 -107 -61.5 -182.5t-147.5 -75.5q-49 0 -89 16.5 t-64.5 40t-44.5 47t-40 40t-40 16.5q-23 0 -38 -23t-15 -63h-140zM365 512q0 -164 58 -237.5t187 -73.5t187.5 74t58.5 237q0 164 -58.5 237.5t-187.5 73.5t-187 -73.5t-58 -237.5z" />
<glyph unicode="&#xf6;" horiz-adv-x="1220" d="M61 512q0 280 130 406t419 126t419 -126t130 -406t-130 -406t-419 -126t-419 126t-130 406zM209 1323q0 89 41 128.5t135 39.5q93 0 134.5 -39.5t41.5 -128.5q0 -88 -42 -128t-134 -40q-94 0 -135 39.5t-41 128.5zM365 512q0 -164 58 -237.5t187 -73.5t187.5 74t58.5 237 q0 164 -58.5 237.5t-187.5 73.5t-187 -73.5t-58 -237.5zM659 1323q0 89 42 128.5t135 39.5q94 0 136 -39.5t42 -128.5q0 -88 -43 -128t-135 -40q-93 0 -135 39.5t-42 128.5z" />
<glyph unicode="&#xf7;" horiz-adv-x="1187" d="M61 430v221h1065v-221h-1065zM430 139q0 69 45.5 112.5t118.5 43.5t118.5 -43.5t45.5 -112.5t-45.5 -112t-118.5 -43t-118.5 43t-45.5 112zM430 942q0 69 46.5 112.5t119.5 43.5t118.5 -43.5t45.5 -112.5t-45.5 -112.5t-118.5 -43.5q-75 0 -120.5 43.5t-45.5 112.5z" />
<glyph unicode="&#xf8;" horiz-adv-x="1218" d="M61 512q0 280 130 406t419 126q58 0 111 -6l43 127h139l-53 -151q159 -46 233 -168.5t74 -335.5q0 -280 -130 -406.5t-419 -126.5q-49 0 -110 7l-43 -127h-140l54 151q-159 46 -233.5 168.5t-74.5 335.5zM365 512q0 -197 86 -266l196 575q-12 2 -37 2q-129 0 -187 -73.5 t-58 -237.5zM573 203q12 -2 37 -2q129 0 187.5 74t58.5 237q0 195 -86 264z" />
<glyph unicode="&#xf9;" horiz-adv-x="1200" d="M102 471v553h304v-553q0 -143 42.5 -206.5t137.5 -63.5t141.5 59t46.5 186l2 578h301v-1024h-237l2 2l-37 80q-99 -102 -301 -102q-211 0 -306.5 116.5t-95.5 374.5zM268 1434h307l197 -308h-240z" />
<glyph unicode="&#xfa;" horiz-adv-x="1200" d="M102 471v553h304v-553q0 -143 42.5 -206.5t137.5 -63.5t141.5 59t46.5 186l2 578h301v-1024h-237l2 2l-37 80q-99 -102 -301 -102q-211 0 -306.5 116.5t-95.5 374.5zM403 1126l199 308h305l-262 -308h-242z" />
<glyph unicode="&#xfb;" horiz-adv-x="1200" d="M102 471v553h304v-553q0 -143 42.5 -206.5t137.5 -63.5t141.5 59t46.5 186l2 578h301v-1024h-237l2 2l-37 80q-99 -102 -301 -102q-211 0 -306.5 116.5t-95.5 374.5zM264 1126l172 308h303l172 -308h-190l-133 168l-133 -168h-191z" />
<glyph unicode="&#xfc;" horiz-adv-x="1200" d="M102 471v553h304v-553q0 -143 42.5 -206.5t137.5 -63.5t141.5 59t46.5 186l2 578h301v-1024h-237l2 2l-37 80q-99 -102 -301 -102q-211 0 -306.5 116.5t-95.5 374.5zM174 1323q0 89 41 128.5t135 39.5q93 0 134.5 -39.5t41.5 -128.5q0 -88 -42 -128t-134 -40 q-94 0 -135 39.5t-41 128.5zM625 1323q0 89 41.5 128.5t134.5 39.5q94 0 136 -39.5t42 -128.5q0 -88 -43 -128t-135 -40q-93 0 -134.5 39.5t-41.5 128.5z" />
<glyph unicode="&#xfd;" horiz-adv-x="1097" d="M18 1024h289l268 -647l213 647h287l-344 -987q-78 -214 -180 -310t-250 -96h-147v189h131q57 0 97.5 43.5t72.5 140.5h-2l8 23zM438 1126l199 308h305l-262 -308h-242z" />
<glyph unicode="&#xff;" horiz-adv-x="1097" d="M18 1024h289l268 -647l213 647h287l-344 -987q-78 -214 -180 -310t-250 -96h-147v189h131q57 0 97.5 43.5t72.5 140.5h-2l8 23zM164 1323q0 89 41.5 128.5t134.5 39.5t134.5 -39.5t41.5 -128.5q0 -88 -42 -128t-134 -40q-94 0 -135 39.5t-41 128.5zM614 1323 q0 89 42 128.5t135 39.5q94 0 136 -39.5t42 -128.5q0 -88 -42 -128t-136 -40q-93 0 -135 39.5t-42 128.5z" />
<glyph unicode="&#x152;" horiz-adv-x="2256" d="M82 719q0 395 159 574.5t509 179.5q180 0 295 -47.5t184 -149.5v158h966v-238l-2 2l-2 -2h-663v-336h581v-237h-581v-385h663v-238h-966v156q-68 -99 -180.5 -147t-296.5 -48q-349 2 -507.5 182t-158.5 576zM434 719q0 -264 90 -383t289 -119q200 0 290.5 118.5 t90.5 383.5q0 264 -90.5 383t-290.5 119q-199 0 -289 -119t-90 -383z" />
<glyph unicode="&#x153;" horiz-adv-x="1939" d="M61 512q0 280 130 406t419 126q276 0 389 -122q125 122 351 122q246 0 387 -143.5t141 -396.5v-90h-752q5 -54 18 -96t37.5 -77t67 -54t101.5 -19q76 0 127.5 39.5t70.5 111.5h289q-31 -157 -162 -248t-325 -91q-226 0 -351 122q-113 -122 -389 -122q-289 0 -419 126 t-130 406zM362 512q0 -164 58.5 -237.5t187.5 -73.5t187.5 74t58.5 237q0 164 -58.5 237.5t-187.5 73.5t-187.5 -73.5t-58.5 -237.5zM1124 586h451q0 130 -58 200t-165 70q-61 0 -105.5 -21t-69 -60t-37 -84.5t-16.5 -104.5z" />
<glyph unicode="&#x178;" horiz-adv-x="1359" d="M20 1434h371l297 -572l297 572h354l-491 -885v-549h-320v549zM274 1647q0 75 41.5 109t135.5 34q92 0 134 -34t42 -109t-42 -109.5t-134 -34.5t-134.5 34.5t-42.5 109.5zM758 1647q0 75 42 109t134 34q94 0 136 -34t42 -109t-42.5 -109.5t-135.5 -34.5q-92 0 -134 34.5 t-42 109.5z" />
<glyph unicode="&#x2c6;" horiz-adv-x="770" d="M61 1126l172 308h304l172 -308h-191l-133 168l-133 -168h-191z" />
<glyph unicode="&#x2dc;" horiz-adv-x="802" d="M61 1229q0 107 61.5 182.5t147.5 75.5q49 0 89 -16.5t65 -39.5t45 -46.5t40 -40t40 -17.5q23 0 38 23t15 63h139q0 -107 -61.5 -182.5t-147.5 -75.5q-49 0 -89 16.5t-65 40t-45 47t-40 40t-39 16.5q-23 0 -38 -23t-15 -63h-140z" />
<glyph unicode="&#x2000;" horiz-adv-x="962" />
<glyph unicode="&#x2001;" horiz-adv-x="1925" />
<glyph unicode="&#x2002;" horiz-adv-x="962" />
<glyph unicode="&#x2003;" horiz-adv-x="1925" />
<glyph unicode="&#x2004;" horiz-adv-x="641" />
<glyph unicode="&#x2005;" horiz-adv-x="481" />
<glyph unicode="&#x2006;" horiz-adv-x="320" />
<glyph unicode="&#x2007;" horiz-adv-x="320" />
<glyph unicode="&#x2008;" horiz-adv-x="240" />
<glyph unicode="&#x2009;" horiz-adv-x="385" />
<glyph unicode="&#x200a;" horiz-adv-x="106" />
<glyph unicode="&#x2010;" horiz-adv-x="798" d="M61 434v221h676v-221h-676z" />
<glyph unicode="&#x2011;" horiz-adv-x="798" d="M61 434v221h676v-221h-676z" />
<glyph unicode="&#x2012;" horiz-adv-x="798" d="M61 434v221h676v-221h-676z" />
<glyph unicode="&#x2013;" horiz-adv-x="1187" d="M61 434v221h1065v-221h-1065z" />
<glyph unicode="&#x2014;" horiz-adv-x="1638" d="M61 434v221h1516v-221h-1516z" />
<glyph unicode="&#x2018;" horiz-adv-x="475" d="M61 1036q0 209 79 303.5t253 94.5v-140q-76 0 -109.5 -45.5t-31.5 -146.5q85 0 123.5 -40t38.5 -126q0 -88 -35.5 -130t-124.5 -42q-50 0 -86.5 16t-56.5 40t-32 62.5t-15 73t-3 80.5z" />
<glyph unicode="&#x2019;" horiz-adv-x="475" d="M61 1282q0 88 35.5 130t124.5 42q50 0 86.5 -16t56.5 -40t32 -62.5t15 -73t3 -80.5q0 -207 -79.5 -302.5t-252.5 -95.5v140q75 0 108.5 46t32.5 148q-85 0 -123.5 39t-38.5 125z" />
<glyph unicode="&#x201a;" horiz-adv-x="475" d="M61 145q0 86 36.5 129t123.5 43q50 0 86.5 -16t56.5 -40t32 -62.5t15 -73t3 -80.5q0 -209 -79 -303t-253 -94v137q75 0 109 47t32 148q-85 0 -123.5 39t-38.5 126z" />
<glyph unicode="&#x201c;" horiz-adv-x="948" d="M61 1036q0 209 79 303.5t253 94.5v-140q-76 0 -109.5 -45.5t-31.5 -146.5q85 0 123.5 -40t38.5 -126q0 -88 -35.5 -130t-124.5 -42q-50 0 -86.5 16t-56.5 40t-32 62.5t-15 73t-3 80.5zM535 1036q0 209 79 303.5t252 94.5l-2 -140q-75 0 -108 -45.5t-33 -146.5 q85 0 124.5 -40t39.5 -126q0 -87 -36.5 -129.5t-123.5 -42.5q-50 0 -86.5 16t-56.5 40t-31.5 62.5t-14.5 72.5t-3 81z" />
<glyph unicode="&#x201d;" horiz-adv-x="948" d="M61 1282q0 88 35.5 130t124.5 42q50 0 86.5 -16t56.5 -40t32 -62.5t15 -73t3 -80.5q0 -207 -79.5 -302.5t-252.5 -95.5v140q75 0 108.5 46t32.5 148q-84 0 -122 38.5t-40 125.5zM535 1282q0 88 34.5 130t122.5 42q50 0 86.5 -15.5t57 -40t32.5 -62t15.5 -73t3.5 -81.5 q0 -207 -80 -302.5t-254 -95.5v140q75 0 109 46t34 148q-85 0 -123 39t-38 125z" />
<glyph unicode="&#x201e;" horiz-adv-x="948" d="M61 145q0 86 36.5 129t123.5 43q50 0 86.5 -16t56.5 -40t32 -62.5t15 -73t3 -80.5q0 -209 -79 -303t-253 -94v137q75 0 109 47t32 148q-85 0 -122.5 38.5t-39.5 126.5zM535 145q0 87 34.5 129.5t122.5 42.5q50 0 86.5 -16t57 -40.5t32.5 -62t15.5 -72.5t3.5 -81 q0 -209 -79.5 -303t-254.5 -94v137q75 0 109 46.5t34 148.5q-85 0 -123 38.5t-38 126.5z" />
<glyph unicode="&#x2026;" horiz-adv-x="1585" d="M61 152q0 89 42 128t135 39t134.5 -39t41.5 -128q0 -88 -42 -128t-134 -40q-93 0 -135 39.5t-42 128.5zM616 152q0 89 42 128t135 39t134.5 -39t41.5 -128q0 -88 -42 -128t-134 -40q-94 0 -135.5 39.5t-41.5 128.5zM1169 152q0 89 42.5 128t136.5 39q93 0 134.5 -39 t41.5 -128q0 -88 -42 -128t-136 -40q-93 0 -135 39.5t-42 128.5z" />
<glyph unicode="&#x202f;" horiz-adv-x="385" />
<glyph unicode="&#x2039;" horiz-adv-x="673" d="M61 532l261 390h290l-245 -390l245 -409h-290z" />
<glyph unicode="&#x203a;" horiz-adv-x="673" d="M61 123l244 409l-244 390h289l262 -390l-262 -409h-289z" />
<glyph unicode="&#x205f;" horiz-adv-x="481" />
<glyph unicode="&#x20ac;" horiz-adv-x="1755" d="M61 506v156h172v55v57h-172v156h187q43 283 220 414t511 131q325 0 489.5 -126.5t202.5 -406.5h-338q-25 146 -108 211.5t-246 65.5q-159 0 -250 -69.5t-123 -219.5h500v-156h-518v-57v-53h438v-156h-420q32 -152 123.5 -222.5t251.5 -70.5q158 0 241.5 65.5t112.5 211.5 v-3h338q-60 -280 -223 -405t-469 -125q-336 0 -513 131t-220 416h-187z" />
<glyph unicode="&#x2122;" horiz-adv-x="2592" d="M61 1196v238h918v-238h-315v-786h-287v786h-316zM1126 410v1024h390l270 -715l270 715h373v-1024h-287v665l-262 -665h-205l-262 665v-665h-287z" />
<glyph unicode="&#x25fc;" horiz-adv-x="1024" d="M0 0v1024h1024v-1024h-1024z" />
</font>
</defs>
</svg>
